<svg width="526" height="72" viewBox="0 0 526 72" fill="none" xmlns="http://www.w3.org/2000/svg">
<path d="M59.7045 1.18182V71H45.3864L17.6023 30.7045H17.1591V71H0.284091V1.18182H14.8068L42.2841 41.4091H42.8636V1.18182H59.7045ZM70.3153 71V1.18182H117.974V14.8864H87.1903V29.2045H114.94V42.9432H87.1903V71H70.3153ZM124.188 14.8864V1.18182H183.199V14.8864H162.028V71H145.392V14.8864H124.188Z" fill="white"/>
<path d="M249.804 22.1136C249.577 19.6136 248.565 17.6705 246.77 16.2841C244.997 14.875 242.463 14.1705 239.168 14.1705C236.986 14.1705 235.168 14.4545 233.713 15.0227C232.259 15.5909 231.168 16.375 230.44 17.375C229.713 18.3523 229.338 19.4773 229.315 20.75C229.27 21.7955 229.474 22.7159 229.929 23.5114C230.406 24.3068 231.088 25.0114 231.974 25.625C232.884 26.2159 233.974 26.7386 235.247 27.1932C236.52 27.6477 237.952 28.0455 239.543 28.3864L245.543 29.75C248.997 30.5 252.043 31.5 254.679 32.75C257.338 34 259.565 35.4886 261.361 37.2159C263.179 38.9432 264.554 40.9318 265.486 43.1818C266.418 45.4318 266.895 47.9545 266.918 50.75C266.895 55.1591 265.781 58.9432 263.577 62.1023C261.372 65.2614 258.202 67.6818 254.065 69.3636C249.952 71.0455 244.986 71.8864 239.168 71.8864C233.327 71.8864 228.236 71.0114 223.895 69.2614C219.554 67.5114 216.179 64.8523 213.77 61.2841C211.361 57.7159 210.122 53.2045 210.054 47.75H226.213C226.349 50 226.952 51.875 228.02 53.375C229.088 54.875 230.554 56.0114 232.418 56.7841C234.304 57.5568 236.486 57.9432 238.963 57.9432C241.236 57.9432 243.168 57.6364 244.759 57.0227C246.372 56.4091 247.611 55.5568 248.474 54.4659C249.338 53.375 249.781 52.125 249.804 50.7159C249.781 49.3977 249.372 48.2727 248.577 47.3409C247.781 46.3864 246.554 45.5682 244.895 44.8864C243.259 44.1818 241.168 43.5341 238.622 42.9432L231.327 41.2386C225.281 39.8523 220.52 37.6136 217.043 34.5227C213.565 31.4091 211.838 27.2045 211.861 21.9091C211.838 17.5909 212.997 13.8068 215.338 10.5568C217.679 7.30682 220.918 4.77273 225.054 2.95455C229.19 1.13636 233.906 0.22727 239.202 0.22727C244.611 0.22727 249.304 1.14772 253.281 2.98863C257.281 4.80682 260.384 7.36364 262.588 10.6591C264.793 13.9545 265.918 17.7727 265.963 22.1136H249.804ZM273.156 14.8864V1.18182H332.168V14.8864H310.997V71H294.361V14.8864H273.156ZM403.119 36.0909C403.119 43.7727 401.642 50.2841 398.688 55.625C395.733 60.9659 391.733 65.0227 386.688 67.7955C381.665 70.5682 376.028 71.9545 369.778 71.9545C363.506 71.9545 357.858 70.5568 352.835 67.7614C347.813 64.9659 343.824 60.9091 340.869 55.5909C337.938 50.25 336.472 43.75 336.472 36.0909C336.472 28.4091 337.938 21.8977 340.869 16.5568C343.824 11.2159 347.813 7.15909 352.835 4.38636C357.858 1.61363 363.506 0.22727 369.778 0.22727C376.028 0.22727 381.665 1.61363 386.688 4.38636C391.733 7.15909 395.733 11.2159 398.688 16.5568C401.642 21.8977 403.119 28.4091 403.119 36.0909ZM385.869 36.0909C385.869 31.5455 385.222 27.7045 383.926 24.5682C382.653 21.4318 380.813 19.0568 378.403 17.4432C376.017 15.8295 373.142 15.0227 369.778 15.0227C366.438 15.0227 363.563 15.8295 361.153 17.4432C358.744 19.0568 356.892 21.4318 355.597 24.5682C354.324 27.7045 353.688 31.5455 353.688 36.0909C353.688 40.6364 354.324 44.4773 355.597 47.6136C356.892 50.75 358.744 53.125 361.153 54.7386C363.563 56.3523 366.438 57.1591 369.778 57.1591C373.142 57.1591 376.017 56.3523 378.403 54.7386C380.813 53.125 382.653 50.75 383.926 47.6136C385.222 44.4773 385.869 40.6364 385.869 36.0909ZM412.972 71V1.18182H441.812C447.04 1.18182 451.551 2.125 455.347 4.01136C459.165 5.875 462.108 8.55682 464.176 12.0568C466.244 15.5341 467.278 19.6591 467.278 24.4318C467.278 29.2727 466.222 33.3864 464.108 36.7727C461.994 40.1364 458.994 42.7045 455.108 44.4773C451.222 46.2273 446.619 47.1023 441.301 47.1023H423.062V33.8068H438.165C440.71 33.8068 442.835 33.4773 444.54 32.8182C446.267 32.1364 447.574 31.1136 448.46 29.75C449.347 28.3636 449.79 26.5909 449.79 24.4318C449.79 22.2727 449.347 20.4886 448.46 19.0795C447.574 17.6477 446.267 16.5795 444.54 15.875C442.813 15.1477 440.688 14.7841 438.165 14.7841H429.847V71H412.972ZM452.278 39.0909L469.665 71H451.256L434.21 39.0909H452.278ZM476.534 71V1.18182H525.216V14.8864H493.409V29.2045H522.727V42.9432H493.409V57.2955H525.216V71H476.534Z" fill="url(#paint0_linear_1_2)"/>
<defs>
<linearGradient id="paint0_linear_1_2" x1="318" y1="-22" x2="318" y2="114" gradientUnits="userSpaceOnUse">
<stop stop-color="#B75CFF"/>
<stop offset="1" stop-color="#671AE4"/>
</linearGradient>
</defs>
</svg>
